<svg width="22" height="16" fill="none" xmlns="http://www.w3.org/2000/svg"><path d="M3.575 0h14.85c.913 0 1.792.318 2.456.888.663.57 1.062 1.35 1.113 2.178L22 3.25v9.5c0 .83-.35 1.629-.976 2.232a3.736 3.736 0 0 1-2.397 1.013l-.202.005H3.575a3.775 3.775 0 0 1-2.455-.888c-.664-.57-1.063-1.35-1.114-2.178L0 12.75v-9.5c0-.83.35-1.629.976-2.232A3.735 3.735 0 0 1 3.373.005L3.575 0ZM20.35 5.373l-8.965 4.29a.888.888 0 0 1-.663.043l-.106-.042-8.966-4.29v7.376c0 .44.182.862.509 1.185.327.323.776.523 1.258.559l.158.006h14.85c.483 0 .949-.165 1.304-.463.356-.298.575-.706.614-1.144l.007-.143V5.373ZM18.425 1.5H3.575c-.483 0-.949.165-1.304.463a1.695 1.695 0 0 0-.614 1.143l-.007.144v.429L11 8.152l9.35-4.474V3.25c0-.44-.182-.863-.51-1.186a2.004 2.004 0 0 0-1.258-.558l-.157-.006Z" fill="#006AFF"/></svg>