<svg width="19" height="20" fill="none" xmlns="http://www.w3.org/2000/svg"><path fill-rule="evenodd" clip-rule="evenodd" d="M5.388.888C6.365.843 6.676.833 9.166.833s2.801.011 3.778.055c.977.045 1.643.2 2.227.426a4.51 4.51 0 0 1 1.623 1.059c.467.457.827 1.01 1.057 1.622.226.583.381 1.25.426 2.225.045.98.055 1.291.055 3.78 0 2.49-.01 2.802-.055 3.78-.044.974-.2 1.641-.426 2.224a4.496 4.496 0 0 1-1.057 1.624 4.494 4.494 0 0 1-1.623 1.057c-.584.227-1.25.382-2.225.427-.979.045-1.29.055-3.78.055-2.49 0-2.802-.011-3.78-.055-.974-.044-1.641-.2-2.224-.427a4.5 4.5 0 0 1-1.625-1.056 4.494 4.494 0 0 1-1.057-1.624C.255 15.422.1 14.755.055 13.78.01 12.801 0 12.49 0 10 0 7.51.01 7.2.055 6.222c.044-.977.2-1.644.426-2.227a4.497 4.497 0 0 1 1.058-1.623 4.493 4.493 0 0 1 1.623-1.058c.583-.226 1.25-.38 2.225-.426Zm7.483 1.65c-.967-.044-1.257-.053-3.704-.053-2.448 0-2.738.01-3.704.054-.895.04-1.38.19-1.703.315a2.847 2.847 0 0 0-1.054.685 2.843 2.843 0 0 0-.685 1.054c-.126.324-.275.809-.316 1.703-.044.967-.053 1.257-.053 3.704 0 2.448.009 2.738.053 3.704.04.894.19 1.38.316 1.703.147.397.38.758.685 1.054.296.304.656.538 1.054.685.323.126.808.275 1.703.316.966.044 1.255.053 3.704.053 2.448 0 2.737-.009 3.704-.053.894-.041 1.379-.19 1.702-.316a2.847 2.847 0 0 0 1.054-.685c.305-.296.539-.657.685-1.054.126-.323.275-.809.316-1.703.044-.966.054-1.256.054-3.704 0-2.447-.01-2.737-.054-3.704-.04-.894-.19-1.38-.316-1.703a2.847 2.847 0 0 0-.685-1.054 2.844 2.844 0 0 0-1.054-.685c-.323-.126-.808-.275-1.702-.316ZM7.996 12.826a3.057 3.057 0 1 0 2.2-5.705 3.058 3.058 0 0 0-2.2 5.705ZM5.835 6.668a4.711 4.711 0 1 1 6.663 6.663A4.711 4.711 0 0 1 5.835 6.67Zm9.088-.678a1.114 1.114 0 1 0-1.528-1.62 1.114 1.114 0 0 0 1.528 1.62Z" fill="#141516"/></svg>