<svg width="22" height="16" fill="none" xmlns="http://www.w3.org/2000/svg"><path d="M3.235.183a.658.658 0 0 1 .926.014.715.715 0 0 1-.015 1.01 9.445 9.445 0 0 0-2.771 6.686 9.445 9.445 0 0 0 2.976 6.885.72.72 0 0 1 .185.786.717.717 0 0 1-.154.24.656.656 0 0 1-.91.026 10.857 10.857 0 0 1-2.57-3.611A10.76 10.76 0 0 1 0 7.893C0 4.88 1.238 2.153 3.235.183Zm14.62 1.023a.715.715 0 0 1-.014-1.01.658.658 0 0 1 .924-.013 10.846 10.846 0 0 1 2.396 3.535 10.8 10.8 0 0 1-2.633 12.113.657.657 0 0 1-.91-.028.716.716 0 0 1 .032-1.023 9.498 9.498 0 0 0 2.202-3.141 9.412 9.412 0 0 0 .773-3.746 9.445 9.445 0 0 0-2.77-6.687ZM5.68 2.572a.642.642 0 0 1 .902.022c.287.283.258.749-.024 1.034a6.077 6.077 0 0 0 .198 8.721c.302.282.343.764.048 1.056a.64.64 0 0 1-.877.039 7.468 7.468 0 0 1-1.842-2.514 7.4 7.4 0 0 1-.648-3.037 7.39 7.39 0 0 1 .58-2.884 7.453 7.453 0 0 1 1.663-2.437Zm9.76 1.056c-.282-.285-.31-.75-.025-1.034a.641.641 0 0 1 .902-.022 7.458 7.458 0 0 1 1.663 2.438c.385.913.583 1.893.581 2.883a7.4 7.4 0 0 1-.648 3.038 7.468 7.468 0 0 1-1.84 2.514.64.64 0 0 1-.88-.04c-.295-.292-.253-.774.05-1.055a6.105 6.105 0 0 0 1.438-2.03 6.052 6.052 0 0 0 .506-2.427 6.07 6.07 0 0 0-1.747-4.265ZM11 6.192c-.456 0-.893.18-1.215.498a1.692 1.692 0 0 0 0 2.406 1.728 1.728 0 0 0 2.43 0 1.692 1.692 0 0 0 0-2.406A1.728 1.728 0 0 0 11 6.192Z" fill="#006AFF"/></svg>