<svg width="22" height="22" fill="none" xmlns="http://www.w3.org/2000/svg"><path d="M11.825 9.625c-.55-.137-1.1-.412-1.512-.825-.413-.138-.55-.55-.55-.825 0-.275.137-.688.412-.825.412-.275.825-.55 1.237-.413.825 0 1.513.413 1.925.963l1.238-1.65c-.412-.412-.825-.688-1.237-.962-.413-.276-.963-.413-1.513-.413V2.75h-1.65v1.925c-.688.138-1.375.55-1.925 1.1-.55.688-.963 1.512-.825 2.338 0 .825.275 1.65.825 2.2.688.687 1.65 1.1 2.475 1.512.412.138.963.413 1.375.688.275.274.412.687.412 1.1 0 .412-.137.825-.412 1.237-.412.412-.963.55-1.375.55-.55 0-1.237-.138-1.65-.55a4.185 4.185 0 0 1-1.1-1.1L6.6 15.262c.413.55.825.963 1.375 1.375.688.413 1.513.825 2.338.825v1.788h1.512v-2.063c.825-.137 1.513-.55 2.063-1.1.687-.687 1.1-1.787 1.1-2.75 0-.825-.275-1.787-.963-2.337-.688-.688-1.375-1.1-2.2-1.375ZM11 0C4.95 0 0 4.95 0 11s4.95 11 11 11 11-4.95 11-11S17.05 0 11 0Zm0 20.488c-5.225 0-9.488-4.263-9.488-9.488S5.775 1.512 11 1.512 20.488 5.775 20.488 11 16.224 20.488 11 20.488Z" fill="#006AFF"/></svg>