<svg width="22" height="20" fill="none" xmlns="http://www.w3.org/2000/svg"><path d="M.688 12.239a.687.687 0 0 1 .687.687v3.438a1.375 1.375 0 0 0 1.375 1.375h16.5a1.375 1.375 0 0 0 1.375-1.375v-3.438a.687.687 0 1 1 1.375 0v3.438a2.75 2.75 0 0 1-2.75 2.75H2.75A2.75 2.75 0 0 1 0 16.364v-3.438a.687.687 0 0 1 .688-.687Z" fill="#006AFF"/><path d="M10.513.202a.688.688 0 0 1 .974 0l4.125 4.125a.688.688 0 1 1-.974.973l-2.95-2.952v12.09a.687.687 0 1 1-1.376 0V2.349L7.362 5.3a.688.688 0 0 1-.974-.973L10.513.202Z" fill="#006AFF"/></svg>