<svg width="24" height="14" fill="none" xmlns="http://www.w3.org/2000/svg"><path d="M8.333 7V1.72a.709.709 0 0 1 .215-.51.735.735 0 0 1 .519-.21h13.2a.745.745 0 0 1 .518.21.72.72 0 0 1 .215.51v10.56a.713.713 0 0 1-.215.51.74.74 0 0 1-.518.21h-13.2a.74.74 0 0 1-.519-.21.713.713 0 0 1-.215-.51V7Zm0 0-6.13 5.016a.74.74 0 0 1-1.088-.167.71.71 0 0 1-.115-.386V2.537c0-.137.04-.27.115-.386a.745.745 0 0 1 1.088-.166L8.333 7Z" stroke="#006AFF" stroke-width="1.5" stroke-linecap="round" stroke-linejoin="round"/></svg>