<svg width="430" height="430" fill="none" xmlns="http://www.w3.org/2000/svg"><g clip-path="url(#a)" fill="#006AFE"><path d="M346.204 195.951c-14.083 0-25.5 11.417-25.5 25.5h-10v-27.474c0-14.083-11.417-25.5-25.5-25.5s-25.5 11.417-25.5 25.5v27.474h-10v-52.567c0-14.083-11.417-25.5-25.5-25.5s-25.5 11.417-25.5 25.5v52.567h-10V105.5c0-14.083-11.417-25.5-25.5-25.5s-25.5 11.417-25.5 25.5v188.798h-10v-61.571c0-14.083-11.417-25.5-25.5-25.5s-25.5 11.417-25.5 25.5v93.851c0 56.7 46.129 102.829 102.829 102.829h89.343c56.699 0 102.828-46.129 102.828-102.829V221.451c0-14.083-11.417-25.5-25.5-25.5ZM57.704 90.5h50v30h-50v-30ZM99.21 20.293l35.354 35.354-21.213 21.213-35.354-35.354L99.21 20.293ZM148.204 0h30v50h-30V0Z"/></g><defs><clipPath id="a"><path fill="#fff" d="M0 0h429.407v429.407H0z"/></clipPath></defs></svg>